<?xml version="1.0" encoding="UTF-8" standalone="no"?>
<!-- Created with Inkscape (http://www.inkscape.org/) -->

<svg
   version="1.1"
   id="svg1"
   width="1058.6667"
   height="214.66667"
   viewBox="0 0 1058.6667 214.66667"
   sodipodi:docname="Klubbhuset Svart.eps"
   xmlns:inkscape="http://www.inkscape.org/namespaces/inkscape"
   xmlns:sodipodi="http://sodipodi.sourceforge.net/DTD/sodipodi-0.dtd"
   xmlns="http://www.w3.org/2000/svg"
   xmlns:svg="http://www.w3.org/2000/svg">
  <defs
     id="defs1">
    <clipPath
       clipPathUnits="userSpaceOnUse"
       id="clipPath2">
      <path
         d="M 2.39453,7.74609 V 1603.38 H 7939.4 V 7.74609 Z"
         transform="translate(0,2.5000001e-5)"
         id="path2" />
    </clipPath>
    <clipPath
       clipPathUnits="userSpaceOnUse"
       id="clipPath4">
      <path
         d="M 2.39453,7.74609 V 1603.38 H 7939.4 V 7.74609 Z"
         transform="translate(0,2.5000001e-5)"
         id="path4" />
    </clipPath>
    <clipPath
       clipPathUnits="userSpaceOnUse"
       id="clipPath6">
      <path
         d="M 2.39453,7.74609 V 1603.38 H 7939.4 V 7.74609 Z"
         transform="translate(0,2.5000001e-5)"
         id="path6" />
    </clipPath>
    <clipPath
       clipPathUnits="userSpaceOnUse"
       id="clipPath8">
      <path
         d="M 2.39453,7.74609 V 1603.38 H 7939.4 V 7.74609 Z"
         transform="translate(0,2.5000001e-5)"
         id="path8" />
    </clipPath>
    <clipPath
       clipPathUnits="userSpaceOnUse"
       id="clipPath10">
      <path
         d="M 2.39453,7.74609 V 1603.38 H 7939.4 V 7.74609 Z"
         transform="translate(0,2.5000001e-5)"
         id="path10" />
    </clipPath>
    <clipPath
       clipPathUnits="userSpaceOnUse"
       id="clipPath12">
      <path
         d="M 2.39453,7.74609 V 1603.38 H 7939.4 V 7.74609 Z"
         transform="translate(0,2.5000001e-5)"
         id="path12" />
    </clipPath>
    <clipPath
       clipPathUnits="userSpaceOnUse"
       id="clipPath14">
      <path
         d="M 2.39453,7.74609 V 1603.38 H 7939.4 V 7.74609 Z"
         transform="translate(0,2.5000001e-5)"
         id="path14" />
    </clipPath>
    <clipPath
       clipPathUnits="userSpaceOnUse"
       id="clipPath16">
      <path
         d="M 2.39453,7.74609 V 1603.38 H 7939.4 V 7.74609 Z"
         transform="translate(0,2.5000001e-5)"
         id="path16" />
    </clipPath>
    <clipPath
       clipPathUnits="userSpaceOnUse"
       id="clipPath18">
      <path
         d="M 2.39453,7.74609 V 1603.38 H 7939.4 V 7.74609 Z"
         transform="translate(0,2.5000001e-5)"
         id="path18" />
    </clipPath>
    <clipPath
       clipPathUnits="userSpaceOnUse"
       id="clipPath20">
      <path
         d="M 2.39453,7.74609 V 1603.38 H 7939.4 V 7.74609 Z"
         transform="translate(0,2.5000001e-5)"
         id="path20" />
    </clipPath>
    <clipPath
       clipPathUnits="userSpaceOnUse"
       id="clipPath22">
      <path
         d="M 2.39453,7.74609 V 1603.38 H 7939.4 V 7.74609 Z"
         transform="translate(0,2.5000001e-5)"
         id="path22" />
    </clipPath>
    <clipPath
       clipPathUnits="userSpaceOnUse"
       id="clipPath24">
      <path
         d="M 2.39453,7.74609 V 1603.38 H 7939.4 V 7.74609 Z"
         transform="translate(0,2.5000001e-5)"
         id="path24" />
    </clipPath>
    <clipPath
       clipPathUnits="userSpaceOnUse"
       id="clipPath26">
      <path
         d="M 2.39453,7.74609 V 1603.38 H 7939.4 V 7.74609 Z"
         transform="translate(0,2.5000001e-5)"
         id="path26" />
    </clipPath>
    <clipPath
       clipPathUnits="userSpaceOnUse"
       id="clipPath28">
      <path
         d="M 2.39453,7.74609 V 1603.38 H 7939.4 V 7.74609 Z"
         transform="translate(0,2.5000001e-5)"
         id="path28" />
    </clipPath>
    <clipPath
       clipPathUnits="userSpaceOnUse"
       id="clipPath30">
      <path
         d="M 2.39453,7.74609 V 1603.38 H 7939.4 V 7.74609 Z"
         transform="translate(0,2.5000001e-5)"
         id="path30" />
    </clipPath>
    <clipPath
       clipPathUnits="userSpaceOnUse"
       id="clipPath32">
      <path
         d="M 2.39453,7.74609 V 1603.38 H 7939.4 V 7.74609 Z"
         transform="translate(0,2.5000001e-5)"
         id="path32" />
    </clipPath>
    <clipPath
       clipPathUnits="userSpaceOnUse"
       id="clipPath34">
      <path
         d="M 2.39453,7.74609 V 1603.38 H 7939.4 V 7.74609 Z"
         transform="translate(0,2.5000001e-5)"
         id="path34" />
    </clipPath>
    <clipPath
       clipPathUnits="userSpaceOnUse"
       id="clipPath36">
      <path
         d="M 2.39453,7.74609 V 1603.38 H 7939.4 V 7.74609 Z"
         transform="translate(0,2.5000001e-5)"
         id="path36" />
    </clipPath>
    <clipPath
       clipPathUnits="userSpaceOnUse"
       id="clipPath38">
      <path
         d="M 2.39453,7.74609 V 1603.38 H 7939.4 V 7.74609 Z"
         transform="translate(0,2.5000001e-5)"
         id="path38" />
    </clipPath>
    <clipPath
       clipPathUnits="userSpaceOnUse"
       id="clipPath40">
      <path
         d="M 2.39453,7.74609 V 1603.38 H 7939.4 V 7.74609 Z"
         transform="translate(0,2.5000001e-5)"
         id="path40" />
    </clipPath>
    <clipPath
       clipPathUnits="userSpaceOnUse"
       id="clipPath42">
      <path
         d="M 2.39453,7.74609 V 1603.38 H 7939.4 V 7.74609 Z"
         transform="translate(0,2.5000001e-5)"
         id="path42" />
    </clipPath>
    <clipPath
       clipPathUnits="userSpaceOnUse"
       id="clipPath44">
      <path
         d="M 2.39453,7.74609 V 1603.38 H 7939.4 V 7.74609 Z"
         transform="translate(0,2.5000001e-5)"
         id="path44" />
    </clipPath>
    <clipPath
       clipPathUnits="userSpaceOnUse"
       id="clipPath46">
      <path
         d="M 2.39453,7.74609 V 1603.38 H 7939.4 V 7.74609 Z"
         transform="translate(0,2.5000001e-5)"
         id="path46" />
    </clipPath>
    <clipPath
       clipPathUnits="userSpaceOnUse"
       id="clipPath48">
      <path
         d="M 2.39453,7.74609 V 1603.38 H 7939.4 V 7.74609 Z"
         transform="translate(0,2.5000001e-5)"
         id="path48" />
    </clipPath>
    <clipPath
       clipPathUnits="userSpaceOnUse"
       id="clipPath50">
      <path
         d="M 2.39453,7.74609 V 1603.38 H 7939.4 V 7.74609 Z"
         transform="translate(0,2.5000001e-5)"
         id="path50" />
    </clipPath>
    <clipPath
       clipPathUnits="userSpaceOnUse"
       id="clipPath52">
      <path
         d="M 2.39453,7.74609 V 1603.38 H 7939.4 V 7.74609 Z"
         transform="translate(0,2.5000001e-5)"
         id="path52" />
    </clipPath>
  </defs>
  <sodipodi:namedview
     id="namedview1"
     pagecolor="#ffffff"
     bordercolor="#000000"
     borderopacity="0.25"
     inkscape:showpageshadow="2"
     inkscape:pageopacity="0.0"
     inkscape:pagecheckerboard="0"
     inkscape:deskcolor="#d1d1d1">
    <inkscape:page
       x="0"
       y="0"
       inkscape:label="1"
       id="page1"
       width="1058.6667"
       height="214.66667"
       margin="0"
       bleed="0" />
  </sodipodi:namedview>
  <g
     id="g1"
     inkscape:groupmode="layer"
     inkscape:label="1">
    <path
       id="path1"
       d="m 299.484,947.18 h -26.375 v -13.918 h 21.825 c 1.668,5.09 3.234,9.879 4.55,13.918"
       style="fill:#000000;fill-opacity:1;fill-rule:nonzero;stroke:none"
       transform="matrix(0.13333333,0,0,-0.13333333,0,214.66667)"
       clip-path="url(#clipPath2)" />
    <path
       id="path3"
       d="m 1948.63,1195.83 h 344.71 V 90.7539 h -515.85 c -21.82,0 -43.67,2.5117 -64.06,7.4883 -20.38,4.9768 -39.32,12.3478 -57.27,22.1758 -17.95,9.828 -34.93,22.109 -50.13,36.352 -15.21,14.25 -28.64,30.46 -39.38,47.902 -22.66,36.469 -32.38,79.066 -32.43,121.808 v 867.9 l 342.27,1.58 V 937.891 h -69.67 V 366.109 c 0.33,-4.82 0.57,-9.199 7.73,-15.109 3.31,-2.391 7.18,-3.539 10.89,-3.531 h 192.85 v 590.422 h -69.66 z m -24.45,-282.389 h 69.68 V 371.922 h -162.59 v 541.519 h 69.68 v 307.069 l -391.18,-1.77 V 326.48 c 0,-24.589 3.05,-49.21 9.08,-71.859 6.03,-22.652 14.94,-43.312 26.85,-62.641 11.91,-19.32 26.83,-37.3 43.61,-53.042 16.79,-15.743 35.44,-29.243 55.15,-40.0435 40.84,-22.5586 86.84,-32.5664 133.03,-32.5937 h 540.3 V 1220.28 H 1924.18 V 913.441"
       style="fill:#000000;fill-opacity:1;fill-rule:nonzero;stroke:none"
       transform="matrix(0.13333333,0,0,-0.13333333,0,214.66667)"
       clip-path="url(#clipPath4)" />
    <path
       id="path5"
       d="m 1251.32,505.16 h 256.7 V 90.7539 H 818.59 V 1195.83 h 359.37 V 939.109 h -85.55 v -591.64 h 158.91 z M 1226.87,371.922 H 1116.84 V 914.66 h 85.58 v 305.62 H 794.141 V 66.3008 H 1532.49 V 529.59 H 1226.87 V 371.922"
       style="fill:#000000;fill-opacity:1;fill-rule:nonzero;stroke:none"
       transform="matrix(0.13333333,0,0,-0.13333333,0,214.66667)"
       clip-path="url(#clipPath6)" />
    <path
       id="path7"
       d="m 2318.92,1195.87 810.46,-1.34 V 826.891 c -0.76,-52.481 -13.64,-107.192 -66.13,-160.481 -5.58,-5.351 -11.53,-10.441 -17.75,-15.172 16.72,-11.367 35.36,-30.597 46.92,-48.519 26.63,-40.52 36.76,-81.489 36.96,-124.641 V 90.7539 H 2406.93 V 937.891 h -88.01 z m -24.45,-282.429 h 88.01 V 66.3008 h 771.35 V 478.078 c -0.02,31.942 -5.56,64.473 -18.4,95.582 -12.49,29.102 -26,52.36 -52.86,78.059 12.47,12.429 23.12,25.359 30.39,36.621 29.25,45.031 40.69,90.789 40.87,138.551 v 392.069 l -859.36,1.39 V 913.441"
       style="fill:#000000;fill-opacity:1;fill-rule:nonzero;stroke:none"
       transform="matrix(0.13333333,0,0,-0.13333333,0,214.66667)"
       clip-path="url(#clipPath8)" />
    <path
       id="path9"
       d="M 793.129,733.828 792.691,32.2148 H 510.27 c 0.351,175.3672 0.703,350.7342 0.89,443.6952 0.188,92.969 0.207,103.539 0.231,114.11 H 324.754 V 91.5156 H 26.8477 V 1313.19 L 324.754,1541.02 V 851.672 h 66.172 c 2.222,6.789 4.449,13.578 7.945,24.269 3.496,10.7 8.27,25.297 13.039,39.899 h -55.203 v 281.38 h 438.215 c 6.844,-15 6.172,-30.73 2.129,-45.13 -0.926,-3.24 -2.043,-6.44 -20.602,-51.87 C 757.895,1054.8 721.902,967.148 700.93,916.07 679.953,865 673.996,850.48 668.039,835.969 c 13.949,-1.008 27.856,-2.848 39.059,-5.047 11.203,-2.211 19.699,-4.774 26.867,-7.481 7.172,-2.703 13.012,-5.543 18.086,-8.531 8.719,-5.219 15.914,-10.871 23.086,-19.91 15.082,-20.289 17.59,-39.09 17.992,-61.172 z M 349.203,891.391 h 29.004 c -1.43,-4.371 -3.148,-9.61 -5.008,-15.27 h -23.996 z m 0,330.259 v 368.84 L 2.39453,1325.26 V 67.0625 H 349.203 V 565.551 h 137.699 c -0.043,-18.09 -0.086,-36.172 -0.273,-129.141 -0.188,-92.969 -0.52,-260.82 -0.852,-428.66391 h 331.348 l 0.457,726.06291 c -0.555,28.953 -4.539,60.562 -34.91,89.152 -4.996,4.508 -10.742,8.84 -17.692,13.027 -6.949,4.184 -15.105,8.231 -25.593,11.903 -10.489,3.668 -23.309,6.961 -36.289,9.199 6.64,16.199 13.281,32.398 28.601,69.531 15.321,37.129 39.317,95.189 52.856,128.679 13.535,33.49 16.613,42.41 19.191,51.93 2.578,9.52 4.656,19.63 6.172,30.73 3.66,23.32 2.168,53.5 -5.078,83.69 H 349.203"
       style="fill:#000000;fill-opacity:1;fill-rule:nonzero;stroke:none"
       transform="matrix(0.13333333,0,0,-0.13333333,0,214.66667)"
       clip-path="url(#clipPath10)" />
    <path
       id="path11"
       d="m 2832.33,371.922 h -127.11 v 132.019 h 124.84 c 1.86,-8.601 2.23,-16.601 2.27,-25.652 z m 24.45,106.367 c 0,5.883 -0.22,11.75 -0.62,16.621 -1.81,12.168 -0.44,22.762 -12.47,32.301 -1.61,0.809 -3.35,1.168 -5.09,1.168 h -157.85 v -180.91 h 176.03 v 130.82"
       style="fill:#000000;fill-opacity:1;fill-rule:nonzero;stroke:none"
       transform="matrix(0.13333333,0,0,-0.13333333,0,214.66667)"
       clip-path="url(#clipPath12)" />
    <path
       id="path13"
       d="m 2832.33,816.988 c -0.01,-8.508 -0.37,-16.519 -1.54,-24.547 h -125.57 v 121 h 127.11 z m 24.45,0 V 937.891 H 2680.75 V 767.969 c 11.78,0 23.57,0 51.59,0.011 28.02,0 72.28,0.008 116.54,0.008 4.79,8.594 5.9,16.934 7.01,27.711 0.59,6.442 0.89,13.871 0.89,21.289"
       style="fill:#000000;fill-opacity:1;fill-rule:nonzero;stroke:none"
       transform="matrix(0.13333333,0,0,-0.13333333,0,214.66667)"
       clip-path="url(#clipPath14)" />
    <path
       id="path15"
       d="m 5131.69,1195.83 h 344.75 V 90.7539 h -515.88 c -21.82,0 -43.66,2.5117 -64.05,7.4883 -20.39,4.9808 -39.32,12.3558 -57.27,22.1838 -17.96,9.828 -34.93,22.105 -50.13,36.344 -15.2,14.242 -28.62,30.441 -39.36,47.878 -22.66,36.461 -32.38,79.071 -32.43,121.832 v 867.9 l 342.26,1.58 V 937.891 h -69.7 V 366.109 c 0.33,-4.82 0.58,-9.211 7.75,-15.109 3.32,-2.391 7.2,-3.539 10.93,-3.531 h 192.85 v 590.422 h -69.72 z m -24.43,-282.389 h 69.68 V 371.922 h -162.59 v 541.519 h 69.66 v 307.069 l -391.16,-1.77 V 326.48 c 0,-24.582 3.05,-49.21 9.08,-71.851 6.03,-22.649 14.93,-43.32 26.84,-62.641 11.91,-19.328 26.83,-37.308 43.61,-53.054 16.79,-15.743 35.45,-29.243 55.16,-40.0434 40.85,-22.5547 86.83,-32.5625 133.02,-32.5898 h 540.32 V 1220.28 H 5107.26 V 913.441"
       style="fill:#000000;fill-opacity:1;fill-rule:nonzero;stroke:none"
       transform="matrix(0.13333333,0,0,-0.13333333,0,214.66667)"
       clip-path="url(#clipPath16)" />
    <path
       id="path17"
       d="M 6203.69,90.7539 H 5502.02 V 452.59 H 5758.7 V 347.469 h 171.15 v 96.551 c -91.6,57.851 -183.2,115.699 -230.32,145.449 -47.12,29.761 -49.75,31.429 -52.39,33.09 -26.88,14.66 -52.18,32.363 -72.45,50.32 -20.28,17.961 -35.54,36.191 -47.4,54.812 -24.46,38.118 -33.99,78.829 -33.86,120.071 v 346.698 l 701.69,1.42 V 836.43 h -257.95 v 102.679 h -169.9 V 866.82 c 100.11,-62.761 200.22,-125.519 251.17,-157.461 50.95,-31.929 52.72,-33.05 54.5,-34.16 27.88,-14.828 53.33,-34.41 73.1,-55.91 19.77,-21.508 33.85,-44.918 43.39,-71.437 9.53,-26.524 14.26,-56.141 14.26,-85.653 z M 6085.7,696.07 c -8.16,5.11 -16.32,10.219 -65.32,40.942 -48.99,30.707 -138.83,87.019 -228.66,143.328 v 34.32 h 121.01 V 811.961 h 306.84 v 408.409 l -750.59,-1.52 V 847.949 c 0,-23.379 2.62,-46.828 8.7,-69 12.13,-42.937 34.62,-82.777 79.15,-123.008 21.75,-19.441 48.79,-38.492 77.56,-54.269 4.44,-2.813 8.89,-5.613 54.06,-34.141 45.17,-28.519 131.06,-82.761 216.95,-137 V 371.922 H 5783.17 V 477.039 H 5477.55 V 66.3008 h 750.59 V 462.199 c 0,32.11 -5.24,64.321 -15.81,93.5 -10.56,29.18 -26.22,55.34 -47.73,79.09 -21.51,23.75 -48.87,45.09 -78.9,61.281"
       style="fill:#000000;fill-opacity:1;fill-rule:nonzero;stroke:none"
       transform="matrix(0.13333333,0,0,-0.13333333,0,214.66667)"
       clip-path="url(#clipPath18)" />
    <path
       id="path19"
       d="m 6221.23,1195.83 h 808.02 V 832.762 h -257.93 v 106.347 h -202.9 V 754.531 h 269.03 V 514.93 H 6568.42 V 347.469 h 202.9 v 91.672 h 257.93 V 90.7539 H 6295.8 V 939.109 h -74.57 z M 6196.8,914.66 h 74.57 V 66.3008 h 782.31 V 463.59 H 6746.89 V 371.922 H 6592.87 V 490.5 h 269.03 v 288.48 h -269.03 v 135.68 h 154.02 V 808.32 h 306.79 v 411.96 H 6196.8 V 914.66"
       style="fill:#000000;fill-opacity:1;fill-rule:nonzero;stroke:none"
       transform="matrix(0.13333333,0,0,-0.13333333,0,214.66667)"
       clip-path="url(#clipPath20)" />
    <path
       id="path21"
       d="m 4372.51,890.57 v -13.961 h -56.76 v 13.961 z m 24.44,420.68 h 0.07 v 242.66 l 297.91,-227.81 c -0.2,-411.53 -0.07,-823.061 -0.1,-1234.5844 H 4396.95 V 590.531 H 4291.31 V 34.4805 H 3992.19 V 1197.22 h 376.19 V 915.039 h -77.07 V 852.18 h 105.64 z m -24.4,0 h -0.04 v -89.58 H 3967.74 V 10.0508 h 348.01 V 566.082 h 56.76 V 67.0625 h 346.79 c 0.03,423.7075 -0.08,847.4065 0.08,1271.1075 l -346.83,265.21 v -292.13"
       style="fill:#000000;fill-opacity:1;fill-rule:nonzero;stroke:none"
       transform="matrix(0.13333333,0,0,-0.13333333,0,214.66667)"
       clip-path="url(#clipPath22)" />
    <path
       id="path23"
       d="m 2509.02,868.84 h 56.77 v 13.961 h -56.77 V 868.84"
       style="fill:#000000;fill-opacity:1;fill-rule:nonzero;stroke:none"
       transform="matrix(0.13333333,0,0,-0.13333333,0,214.66667)"
       clip-path="url(#clipPath24)" />
    <path
       id="path25"
       d="m 3154.84,1195.87 810.46,-1.34 V 826.891 c -0.79,-52.469 -13.56,-107.11 -66.16,-160.493 -5.58,-5.347 -11.53,-10.429 -17.74,-15.16 16.73,-11.367 35.38,-30.59 46.94,-48.519 26.59,-40.5 36.77,-81.547 36.96,-124.641 V 90.7539 H 3242.86 V 937.891 h -88.02 z m -24.43,-282.429 h 87.99 V 66.3008 h 771.35 V 478.078 c -0.01,31.953 -5.56,64.5 -18.42,95.613 -12.51,29.059 -25.97,52.34 -52.84,78.028 12.47,12.429 23.12,25.359 30.4,36.621 29.27,45.039 40.67,90.769 40.86,138.551 v 392.069 l -859.34,1.39 V 913.441"
       style="fill:#000000;fill-opacity:1;fill-rule:nonzero;stroke:none"
       transform="matrix(0.13333333,0,0,-0.13333333,0,214.66667)"
       clip-path="url(#clipPath26)" />
    <path
       id="path27"
       d="m 3668.25,816.988 c -0.01,-8.539 -0.37,-16.449 -1.52,-24.547 H 3541.1 v 121 h 127.15 z m 24.45,0 V 937.891 H 3516.67 V 767.969 c 11.78,0 23.56,0 51.58,0.011 28.02,0 72.29,0.008 116.55,0.008 4.79,8.594 5.91,16.934 7.02,27.711 0.59,6.442 0.88,13.871 0.88,21.289"
       style="fill:#000000;fill-opacity:1;fill-rule:nonzero;stroke:none"
       transform="matrix(0.13333333,0,0,-0.13333333,0,214.66667)"
       clip-path="url(#clipPath28)" />
    <path
       id="path29"
       d="M 3668.25,371.922 H 3541.1 v 132.019 h 124.89 c 1.85,-8.601 2.22,-16.601 2.26,-25.652 z m 24.45,106.367 c 0,5.871 -0.22,11.731 -0.61,16.59 -1.82,12.16 -0.44,22.781 -12.48,32.332 -1.62,0.809 -3.35,1.168 -5.09,1.168 h -157.85 v -180.91 h 176.03 v 130.82"
       style="fill:#000000;fill-opacity:1;fill-rule:nonzero;stroke:none"
       transform="matrix(0.13333333,0,0,-0.13333333,0,214.66667)"
       clip-path="url(#clipPath30)" />
    <path
       id="path31"
       d="M 7708.36,347.469 V 90.7539 H 7258.51 V 347.469 h 88.03 v 591.64 h -35.47 V 832.762 h -256.7 v 363.068 h 860.56 V 832.762 h -256.69 v 106.347 h -37.9 V 347.469 Z M 7939.4,808.32 v 411.96 H 7029.9 V 808.32 h 292.17 V 371.922 h -88.01 V 66.3008 h 498.73 V 371.922 h -88 V 808.32 h 294.61"
       style="fill:#000000;fill-opacity:1;fill-rule:nonzero;stroke:none"
       transform="matrix(0.13333333,0,0,-0.13333333,0,214.66667)"
       clip-path="url(#clipPath32)" />
    <path
       id="path33"
       d="M 386.051,1167.87 V 945.191 h 66.328 L 412.199,822.32 H 295.426 v 659.32 L 56.1914,1298.7 V 120.859 H 295.426 V 619.34 H 540.813 L 539.688,61.543 h 223.679 l 0.438,672.309 c 0.004,6.878 -0.555,13.769 -1.524,19.328 -2.554,12.789 -5.926,21.101 -16.828,31.011 -7.613,6.368 -14.605,9.68 -23.734,12.957 -5.5,1.934 -12.02,3.731 -20.25,5.364 -8.235,1.629 -18.184,3.066 -31.227,4.097 -13.039,1.02 -29.172,1.629 -45.297,1.602 L 772.43,1167.87 H 386.051"
       style="fill:#000000;fill-opacity:1;fill-rule:nonzero;stroke:none"
       transform="matrix(0.13333333,0,0,-0.13333333,0,214.66667)"
       clip-path="url(#clipPath34)" />
    <path
       id="path35"
       d="m 4426.35,1311.25 h -0.06 V 822.84 h -164.32 v 121.551 h 77.07 v 223.479 h -317.5 V 63.8281 h 240.43 V 619.898 h 164.32 V 120.84 h 239.24 v 1184.03 h 0.07 v 6.72 l -239.25,182.96 v -183.3"
       style="fill:#000000;fill-opacity:1;fill-rule:nonzero;stroke:none"
       transform="matrix(0.13333333,0,0,-0.13333333,0,214.66667)"
       clip-path="url(#clipPath36)" />
    <path
       id="path37"
       d="M 1478.67,120.098 H 847.918 V 1166.48 H 1148.62 V 968.461 h -85.54 v -650.34 h 217.56 v 157.68 h 198.03 V 120.098"
       style="fill:#000000;fill-opacity:1;fill-rule:nonzero;stroke:none"
       transform="matrix(0.13333333,0,0,-0.13333333,0,214.66667)"
       clip-path="url(#clipPath38)" />
    <path
       id="path39"
       d="m 2651.4,318.121 h 234.73 v 160.168 c 0,7.883 -0.4,15.762 -1.13,22.52 -0.72,6.75 -1.75,12.382 -2.96,17.222 -3.54,12.059 -5.87,22.391 -20.12,33.18 -7.69,5.008 -14.94,6.41 -23.32,6.508 h -187.2 z m 0,649.117 V 738.629 c 68.07,0.199 135.67,-0.66 204.21,0.59 6.96,0.89 15.72,8.043 19.22,14.89 3.72,6.52 5.74,12.75 7.57,20.84 2.46,10.789 3.74,26.492 3.73,42.039 v 150.25 z m -215.12,-847.14 v 847.14 h -88.02 v 199.242 l 751.77,-1.2 V 826.891 c -0.18,-36.461 -8.19,-72.371 -32.08,-109.11 -7.02,-10.66 -15.12,-20.64 -23.96,-29.41 -19.23,-19.019 -40.81,-31.18 -63.09,-39.152 11.89,-3.071 23.41,-7.59 33.97,-13.289 10.55,-5.692 20.15,-12.571 29.02,-20.879 19.14,-18.031 32.91,-40.153 41.78,-61.781 9.82,-23.739 14.36,-49.379 14.36,-75.192 v -357.98 h -663.75"
       style="fill:#000000;fill-opacity:1;fill-rule:nonzero;stroke:none"
       transform="matrix(0.13333333,0,0,-0.13333333,0,214.66667)"
       clip-path="url(#clipPath40)" />
    <path
       id="path41"
       d="m 3487.35,318.121 h 234.68 v 160.168 c 0,7.883 -0.4,15.762 -1.12,22.52 -0.72,6.75 -1.76,12.382 -2.96,17.222 -3.54,12.059 -5.87,22.391 -20.12,33.18 -7.68,5.008 -14.94,6.41 -23.31,6.508 h -187.17 z m 0,649.117 V 738.629 c 68.06,0.199 135.65,-0.66 204.18,0.59 6.96,0.89 15.7,8.043 19.21,14.89 3.72,6.52 5.74,12.75 7.56,20.84 2.47,10.789 3.74,26.492 3.73,42.039 v 150.25 z m -215.17,-847.14 v 847.14 h -88.01 v 199.242 l 751.79,-1.2 V 826.891 c -0.19,-36.442 -8.19,-72.321 -32.06,-109.11 -7.03,-10.672 -15.13,-20.652 -23.99,-29.41 -19.23,-19.031 -40.79,-31.18 -63.07,-39.152 11.88,-3.071 23.39,-7.59 33.95,-13.278 10.55,-5.703 20.15,-12.582 29.03,-20.89 19.15,-18.02 32.93,-40.18 41.8,-61.832 9.8,-23.758 14.33,-49.36 14.34,-75.141 v -357.98 h -663.78"
       style="fill:#000000;fill-opacity:1;fill-rule:nonzero;stroke:none"
       transform="matrix(0.13333333,0,0,-0.13333333,0,214.66667)"
       clip-path="url(#clipPath42)" />
    <path
       id="path43"
       d="m 5531.36,120.098 v 303.14 h 198.03 V 318.121 h 229.79 c -0.1,47.41 0.34,94.828 -0.3,142.238 l -296.39,187.192 c -24.74,13.398 -48.08,29.539 -66.6,45.719 -38.44,34.019 -56.16,65.96 -66.03,99.628 -4.97,17.633 -7.37,36.172 -7.08,54.653 0.14,19.109 0.23,38.219 0.29,63.91 0.07,25.687 0.1,57.949 0.06,101.339 -0.04,43.38 -0.17,97.89 -0.35,152.39 l 643,1.29 V 865.762 H 5966.51 V 968.461 H 5737.92 V 850.578 l 319.63,-200.367 c 19.37,-10.281 37.5,-22.961 52.39,-36.43 14.9,-13.472 26.55,-27.73 35.91,-43.07 19.94,-32.199 28.45,-70.18 28.48,-108.512 V 120.098 h -642.97"
       style="fill:#000000;fill-opacity:1;fill-rule:nonzero;stroke:none"
       transform="matrix(0.13333333,0,0,-0.13333333,0,214.66667)"
       clip-path="url(#clipPath44)" />
    <path
       id="path45"
       d="m 6999.91,120.098 h -674.78 v 848.363 h -74.56 v 198.019 h 749.34 V 862.102 H 6800.66 V 968.461 H 6539.07 V 725.199 h 269.06 V 544.281 h -269.06 v -226.16 h 261.59 v 91.68 h 199.25 V 120.098"
       style="fill:#000000;fill-opacity:1;fill-rule:nonzero;stroke:none"
       transform="matrix(0.13333333,0,0,-0.13333333,0,214.66667)"
       clip-path="url(#clipPath46)" />
    <path
       id="path47"
       d="m 7679.01,120.098 h -391.17 v 198.023 h 88.01 v 650.34 h -94.09 V 862.102 H 7083.7 v 304.378 h 801.93 V 862.102 h -198.07 v 106.359 h -96.54 v -650.34 h 87.99 V 120.098"
       style="fill:#000000;fill-opacity:1;fill-rule:nonzero;stroke:none"
       transform="matrix(0.13333333,0,0,-0.13333333,0,214.66667)"
       clip-path="url(#clipPath48)" />
    <path
       id="path49"
       d="M 5161.04,1166.48 V 967.238 h 69.68 V 318.121 h -222.16 c -9,0.008 -18.86,2.457 -28.09,9.078 -14.68,11.02 -19.77,25.223 -19.91,38.91 v 601.129 h 69.69 v 199.242 l -283.58,-1.29 V 326.48 c 0,-19.64 2.4,-39.32 7.12,-57.261 4.73,-17.938 11.7,-34.137 21.03,-49.297 9.34,-15.152 21.04,-29.274 34.37,-41.75 13.34,-12.481 28.3,-23.332 44.09,-31.992 32.8,-18.153 69.88,-26.047 107.28,-26.082 H 5447.1 V 1166.48 h -286.06"
       style="fill:#000000;fill-opacity:1;fill-rule:nonzero;stroke:none"
       transform="matrix(0.13333333,0,0,-0.13333333,0,214.66667)"
       clip-path="url(#clipPath50)" />
    <path
       id="path51"
       d="M 1977.96,1166.48 V 967.238 h 69.67 V 318.121 h -222.19 c -8.99,0.008 -18.83,2.457 -28.05,9.07 -14.68,11.02 -19.75,25.219 -19.9,38.918 v 601.129 h 69.68 v 199.242 l -283.62,-1.29 V 326.48 c 0,-19.621 2.39,-39.281 7.12,-57.21 4.73,-17.93 11.69,-34.141 21.03,-49.309 9.35,-15.172 21.06,-29.301 34.4,-41.789 13.35,-12.492 28.31,-23.344 44.1,-32 32.8,-18.152 69.89,-26.039 107.29,-26.074 h 486.53 V 1166.48 h -286.06"
       style="fill:#000000;fill-opacity:1;fill-rule:nonzero;stroke:none"
       transform="matrix(0.13333333,0,0,-0.13333333,0,214.66667)"
       clip-path="url(#clipPath52)" />
  </g>
</svg>
