<?xml version="1.0" encoding="UTF-8" standalone="no"?>
<!-- Created with Inkscape (http://www.inkscape.org/) -->

<svg
   version="1.1"
   id="svg2"
   xml:space="preserve"
   width="321.85867"
   height="90.757225"
   viewBox="0 0 321.85867 90.757225"
   sodipodi:docname="ad86b9b773026cdb1be937bad4314490.eps"
   xmlns:inkscape="http://www.inkscape.org/namespaces/inkscape"
   xmlns:sodipodi="http://sodipodi.sourceforge.net/DTD/sodipodi-0.dtd"
   xmlns="http://www.w3.org/2000/svg"
   xmlns:svg="http://www.w3.org/2000/svg"><defs
     id="defs6" /><sodipodi:namedview
     id="namedview4"
     pagecolor="#ffffff"
     bordercolor="#666666"
     borderopacity="1.0"
     inkscape:pageshadow="2"
     inkscape:pageopacity="0.0"
     inkscape:pagecheckerboard="0" /><g
     id="g8"
     inkscape:groupmode="layer"
     inkscape:label="ink_ext_XXXXXX"
     transform="matrix(1.3333333,0,0,-1.3333333,-217.02399,423.33127)"><g
       id="g10"
       transform="scale(0.1)"><path
         d="m 2673.47,2703.18 h 105.8 v -40.04 h -105.8 v -84.64 h -44.28 v 218.11 h 162.77 v -40.04 h -118.49 v -53.39"
         style="fill:#231f20;fill-opacity:1;fill-rule:nonzero;stroke:none"
         id="path12" /><path
         d="m 2933.57,2659.56 c 0,29.95 -23.12,48.83 -46.23,48.83 -26.04,0 -45.58,-18.88 -45.58,-48.83 0,-29.95 19.54,-48.51 45.58,-48.51 23.11,0 46.23,18.56 46.23,48.51 z m 42.97,-81.06 h -42.97 v 12.7 c -13.68,-11.07 -31.58,-17.58 -53.72,-17.58 -41.34,0 -79.76,34.83 -79.76,85.94 0,51.11 38.42,86.27 79.76,86.27 22.14,0 40.04,-6.51 53.72,-17.9 v 13.02 h 42.97 V 2578.5"
         style="fill:#231f20;fill-opacity:1;fill-rule:nonzero;stroke:none"
         id="path14" /><path
         d="M 3270.73,2680.07 V 2578.5 h -42.65 v 92.78 c 0,21.81 -14,35.16 -31.9,35.16 -22.79,0 -37.76,-15.63 -37.76,-49.81 v -78.13 h -42.98 v 92.78 c 0,21.81 -13.99,35.16 -31.9,35.16 -22.79,0 -37.11,-15.63 -37.11,-49.81 v -78.13 h -42.97 v 162.45 h 42.97 v -13.35 c 11.39,11.39 27.35,18.23 48.5,18.23 21.82,0 41.67,-9.44 53.39,-26.7 13.35,16.61 33.21,26.7 59.26,26.7 33.85,0 63.15,-26.04 63.15,-65.76"
         style="fill:#231f20;fill-opacity:1;fill-rule:nonzero;stroke:none"
         id="path16" /><path
         d="m 3297.87,2578.5 v 162.45 h 42.97 V 2578.5 Z m 47.53,210.95 c 0,-14.32 -11.07,-25.06 -26.04,-25.06 -15.3,0 -26.05,10.74 -26.05,25.06 0,13.68 10.75,25.72 26.05,25.72 14.97,0 26.04,-12.04 26.04,-25.72"
         style="fill:#231f20;fill-opacity:1;fill-rule:nonzero;stroke:none"
         id="path18" /><path
         d="m 3373.26,2578.5 v 234.39 h 42.98 V 2578.5 h -42.98"
         style="fill:#231f20;fill-opacity:1;fill-rule:nonzero;stroke:none"
         id="path20" /><path
         d="m 3517.57,2523.16 h -47.85 l 26.04,60.55 -67.39,157.56 h 47.86 l 42.97,-103.85 44.92,103.85 h 47.86 l -94.41,-218.11"
         style="fill:#231f20;fill-opacity:1;fill-rule:nonzero;stroke:none"
         id="path22" /><path
         d="m 1778.06,2973.15 c 0,-15.3 -12.41,-27.7 -27.71,-27.7 -15.29,0 -27.7,12.4 -27.7,27.7 0,15.3 12.41,27.7 27.7,27.7 15.3,0 27.71,-12.4 27.71,-27.7"
         style="fill:#ed183a;fill-opacity:1;fill-rule:nonzero;stroke:none"
         id="path24" /><path
         d="m 1667.25,3107.7 c 0,-10.92 -8.86,-19.78 -19.79,-19.78 -10.93,0 -19.78,8.86 -19.78,19.78 0,10.93 8.85,19.79 19.78,19.79 10.93,0 19.79,-8.86 19.79,-19.79"
         style="fill:#ed183a;fill-opacity:1;fill-rule:nonzero;stroke:none"
         id="path26" /><path
         d="m 1667.25,2830.69 c 0,-10.93 -8.86,-19.79 -19.79,-19.79 -10.93,0 -19.78,8.86 -19.78,19.79 0,10.93 8.85,19.78 19.78,19.78 10.93,0 19.79,-8.85 19.79,-19.78"
         style="fill:#ed183a;fill-opacity:1;fill-rule:nonzero;stroke:none"
         id="path28" /><path
         d="m 1667.25,2561.58 c 0,-10.92 -8.86,-19.78 -19.79,-19.78 -10.93,0 -19.78,8.86 -19.78,19.78 0,10.93 8.85,19.79 19.78,19.79 10.93,0 19.79,-8.86 19.79,-19.79"
         style="fill:#ed183a;fill-opacity:1;fill-rule:nonzero;stroke:none"
         id="path30" /><path
         d="m 2102.56,2835.2 c 0.31,-26.22 -20.7,-47.73 -46.93,-48.04 -26.22,-0.31 -47.73,20.7 -48.04,46.93 -0.31,26.22 20.7,47.73 46.92,48.04 26.23,0.31 47.74,-20.7 48.05,-46.93"
         style="fill:#ed183a;fill-opacity:1;fill-rule:nonzero;stroke:none"
         id="path32" /><path
         d="m 2316.26,2831.39 c 0.38,-32.79 -25.88,-59.67 -58.66,-60.06 -32.78,-0.39 -59.67,25.88 -60.06,58.66 -0.38,32.78 25.88,59.67 58.66,60.05 32.78,0.39 59.67,-25.87 60.06,-58.65"
         style="fill:#ed183a;fill-opacity:1;fill-rule:nonzero;stroke:none"
         id="path34" /><path
         d="m 2316.26,2562.28 c 0.38,-32.78 -25.88,-59.67 -58.66,-60.05 -32.78,-0.39 -59.67,25.87 -60.06,58.66 -0.38,32.78 25.88,59.66 58.66,60.05 32.78,0.39 59.67,-25.87 60.06,-58.66"
         style="fill:#ed183a;fill-opacity:1;fill-rule:nonzero;stroke:none"
         id="path36" /><path
         d="m 2316.26,3108.4 c 0.38,-32.78 -25.88,-59.67 -58.66,-60.05 -32.78,-0.39 -59.67,25.87 -60.06,58.66 -0.38,32.78 25.88,59.66 58.66,60.05 32.78,0.39 59.67,-25.87 60.06,-58.66"
         style="fill:#ed183a;fill-opacity:1;fill-rule:nonzero;stroke:none"
         id="path38" /><path
         d="m 2427.06,2973.95 c 0.44,-37.16 -29.32,-67.63 -66.47,-68.07 -37.16,-0.44 -67.63,29.33 -68.07,66.48 -0.44,37.15 29.33,67.63 66.48,68.06 37.15,0.44 67.63,-29.32 68.06,-66.47"
         style="fill:#ed183a;fill-opacity:1;fill-rule:nonzero;stroke:none"
         id="path40" /><path
         d="m 2427.06,2696.93 c 0.44,-37.15 -29.32,-67.63 -66.47,-68.07 -37.16,-0.43 -67.63,29.33 -68.07,66.48 -0.44,37.16 29.33,67.63 66.48,68.07 37.15,0.43 67.63,-29.33 68.06,-66.48"
         style="fill:#ed183a;fill-opacity:1;fill-rule:nonzero;stroke:none"
         id="path42" /><path
         d="m 2522.04,3108.5 c 0.44,-37.16 -29.32,-67.63 -66.48,-68.07 -37.15,-0.43 -67.62,29.33 -68.06,66.48 -0.44,37.15 29.33,67.63 66.48,68.07 37.15,0.43 67.62,-29.33 68.06,-66.48"
         style="fill:#ed183a;fill-opacity:1;fill-rule:nonzero;stroke:none"
         id="path44" /><path
         d="m 2522.04,2831.48 c 0.44,-37.15 -29.32,-67.63 -66.48,-68.06 -37.15,-0.44 -67.62,29.32 -68.06,66.47 -0.44,37.16 29.33,67.63 66.48,68.07 37.15,0.44 67.62,-29.33 68.06,-66.48"
         style="fill:#ed183a;fill-opacity:1;fill-rule:nonzero;stroke:none"
         id="path46" /><path
         d="m 2522.04,2562.38 c 0.44,-37.16 -29.32,-67.63 -66.48,-68.07 -37.15,-0.43 -67.62,29.33 -68.06,66.48 -0.44,37.15 29.33,67.63 66.48,68.07 37.15,0.43 67.62,-29.33 68.06,-66.48"
         style="fill:#ed183a;fill-opacity:1;fill-rule:nonzero;stroke:none"
         id="path48" /><path
         d="m 2205.46,2700.09 c 0,-30.6 -24.81,-55.4 -55.41,-55.4 -30.6,0 -55.4,24.8 -55.4,55.4 0,30.6 24.8,55.41 55.4,55.41 30.6,0 55.41,-24.81 55.41,-55.41"
         style="fill:#ed183a;fill-opacity:1;fill-rule:nonzero;stroke:none"
         id="path50" /><path
         d="m 1888.86,2561.58 c 0,-19.67 -15.94,-35.61 -35.61,-35.61 -19.67,0 -35.62,15.94 -35.62,35.61 0,19.68 15.95,35.62 35.62,35.62 19.67,0 35.61,-15.94 35.61,-35.62"
         style="fill:#ed183a;fill-opacity:1;fill-rule:nonzero;stroke:none"
         id="path52" /><path
         d="m 1888.86,2830.69 c 0,-19.67 -15.94,-35.62 -35.61,-35.62 -19.67,0 -35.62,15.95 -35.62,35.62 0,19.67 15.95,35.61 35.62,35.61 19.67,0 35.61,-15.94 35.61,-35.61"
         style="fill:#ed183a;fill-opacity:1;fill-rule:nonzero;stroke:none"
         id="path54" /><path
         d="m 1888.86,3107.7 c 0,-19.67 -15.94,-35.61 -35.61,-35.61 -19.67,0 -35.62,15.94 -35.62,35.61 0,19.67 15.95,35.62 35.62,35.62 19.67,0 35.61,-15.95 35.61,-35.62"
         style="fill:#ed183a;fill-opacity:1;fill-rule:nonzero;stroke:none"
         id="path56" /><path
         d="m 1778.06,2696.14 c 0,-15.3 -12.41,-27.71 -27.71,-27.71 -15.29,0 -27.7,12.41 -27.7,27.71 0,15.3 12.41,27.7 27.7,27.7 15.3,0 27.71,-12.4 27.71,-27.7"
         style="fill:#ed183a;fill-opacity:1;fill-rule:nonzero;stroke:none"
         id="path58" /><path
         d="m 1991.76,2973.15 c 0,-24.04 -19.49,-43.53 -43.54,-43.53 -24.04,0 -43.53,19.49 -43.53,43.53 0,24.04 19.49,43.53 43.53,43.53 24.05,0 43.54,-19.49 43.54,-43.53"
         style="fill:#ed183a;fill-opacity:1;fill-rule:nonzero;stroke:none"
         id="path60" /><path
         d="m 3947.21,2798.39 h -47.86 l 26.04,60.55 -67.38,157.56 h 47.85 l 42.98,-103.85 44.92,103.85 h 47.86 l -94.41,-218.11"
         style="fill:#231f20;fill-opacity:1;fill-rule:nonzero;stroke:none"
         id="path62" /><path
         d="m 2831.04,3071.54 v -217.82 h -37.06 l -120.61,139.79 v -139.79 h -44.21 v 217.82 h 37.05 l 120.61,-143.69 v 143.69 h 44.22"
         style="fill:#231f20;fill-opacity:1;fill-rule:nonzero;stroke:none"
         id="path64" /><path
         d="m 2903.8,2953.53 h 78.35 c -5.85,20.81 -21.13,29.91 -38.36,29.91 -16.26,0 -34.79,-9.76 -39.99,-29.91 z m 122.23,-30.23 H 2902.5 c 4.22,-23.42 20.81,-37.72 40.63,-37.72 12.69,0 28.62,1.63 40.31,21.46 l 38.37,-8.13 c -14.3,-33.81 -43.24,-50.06 -78.68,-50.06 -45.83,0 -83.22,34.78 -83.22,85.82 0,51.05 37.39,86.15 83.88,86.15 43.24,0 80.61,-33.49 82.24,-82.9 v -14.62"
         style="fill:#231f20;fill-opacity:1;fill-rule:nonzero;stroke:none"
         id="path66" /><path
         d="m 3271.04,3015.95 -53.95,-162.56 h -38.7 l -31.86,95.59 -32.17,-95.59 h -38.7 l -53.97,162.56 h 42.59 l 32.19,-99.81 33.17,99.81 h 33.47 l 33.17,-100.14 32.19,100.14 h 42.57"
         style="fill:#231f20;fill-opacity:1;fill-rule:nonzero;stroke:none"
         id="path68" /><path
         d="m 3422.48,2934.67 c 0,29.91 -19.52,48.77 -45.51,48.77 -23.09,0 -46.18,-18.86 -46.18,-48.77 0,-29.91 23.09,-48.44 46.18,-48.44 25.99,0 45.51,18.53 45.51,48.44 z m 41.61,0 c 0,-51.04 -38.37,-85.82 -79.65,-85.82 -22.11,0 -39.99,6.5 -53.65,17.56 v -12.69 h -42.9 v 234.07 h 42.9 v -84.85 c 13.66,11.38 31.54,17.88 53.65,17.88 41.28,0 79.65,-35.1 79.65,-86.15"
         style="fill:#231f20;fill-opacity:1;fill-rule:nonzero;stroke:none"
         id="path70" /><path
         d="m 3611.86,2934.67 c 0,30.24 -23.4,48.44 -45.83,48.44 -23.41,0 -46.82,-18.2 -46.82,-48.44 0,-30.24 23.41,-48.44 46.82,-48.44 22.43,0 45.83,18.2 45.83,48.44 z m 41.62,0 c 0,-51.04 -39.99,-85.17 -87.45,-85.17 -48.45,0 -88.43,34.13 -88.43,85.17 0,51.05 39.98,85.18 88.43,85.18 47.46,0 87.45,-34.13 87.45,-85.18"
         style="fill:#231f20;fill-opacity:1;fill-rule:nonzero;stroke:none"
         id="path72" /><path
         d="m 3798.65,2934.67 c 0,29.91 -23.09,48.77 -46.17,48.77 -26.01,0 -45.52,-18.86 -45.52,-48.77 0,-29.91 19.51,-48.44 45.52,-48.44 23.08,0 46.17,18.53 46.17,48.44 z m 42.9,153.12 v -234.07 h -42.9 v 12.69 c -13.66,-11.06 -31.53,-17.56 -53.64,-17.56 -41.29,0 -79.66,34.78 -79.66,85.82 0,51.05 38.37,86.15 79.66,86.15 22.11,0 39.98,-6.5 53.64,-17.88 v 84.85 h 42.9"
         style="fill:#231f20;fill-opacity:1;fill-rule:nonzero;stroke:none"
         id="path74" /></g></g></svg>
