<?xml version="1.0" encoding="UTF-8" standalone="no"?>
<!-- Created with Inkscape (http://www.inkscape.org/) -->

<svg
   version="1.1"
   id="svg1"
   width="1238.7467"
   height="273.61334"
   viewBox="0 0 1238.7467 273.61334"
   sodipodi:docname="SWE_SPORTS.eps"
   xmlns:inkscape="http://www.inkscape.org/namespaces/inkscape"
   xmlns:sodipodi="http://sodipodi.sourceforge.net/DTD/sodipodi-0.dtd"
   xmlns="http://www.w3.org/2000/svg"
   xmlns:svg="http://www.w3.org/2000/svg">
  <defs
     id="defs1" />
  <sodipodi:namedview
     id="namedview1"
     pagecolor="#ffffff"
     bordercolor="#000000"
     borderopacity="0.25"
     inkscape:showpageshadow="2"
     inkscape:pageopacity="0.0"
     inkscape:pagecheckerboard="0"
     inkscape:deskcolor="#d1d1d1">
    <inkscape:page
       x="0"
       y="0"
       inkscape:label="1"
       id="page1"
       width="1238.7467"
       height="273.61334"
       margin="0"
       bleed="0" />
  </sodipodi:namedview>
  <g
     id="g1"
     inkscape:groupmode="layer"
     inkscape:label="1">
    <g
       id="group-R5">
      <path
         id="path2"
         d="m 428.418,114.539 c 3.285,23.902 -9.113,41.379 -37.199,52.441 l -38.77,14.122 -12.996,5.609 c -43.629,19.859 -64.019,47.801 -61.183,83.801 1.496,18.078 7.695,34.066 18.605,47.957 10.902,13.902 25.355,24.609 43.359,32.16 18,7.543 37.161,11.101 57.485,10.652 19.715,-0.453 37.308,-4.871 52.773,-13.23 15.465,-8.371 27.227,-20.051 35.293,-35.063 8.07,-15.019 11.656,-31.937 10.758,-50.769 l -42.355,0.23 c 1.496,20.09 -2.989,35.641 -13.442,46.66 -10.465,11.02 -25.402,16.68 -44.824,16.981 -20.469,0.289 -37.574,-4.488 -51.32,-14.371 -13.743,-9.879 -21.661,-23.348 -23.754,-40.41 -2.989,-22.309 10.683,-39.219 41.011,-50.75 l 33.395,-11.899 16.805,-7.172 c 42.129,-19.418 61.625,-48.258 58.492,-86.5 C 468.906,96.6211 462.703,80.7383 451.945,67.3711 441.191,54 426.586,43.6484 408.137,36.3281 389.688,29.0117 369.852,25.5703 348.641,26.0195 c -20.473,0.1524 -39.184,4.5196 -56.137,13.1094 -16.957,8.5899 -29.844,20.3594 -38.656,35.3008 -8.821,14.9297 -12.703,31.8983 -11.657,50.8713 l 42.133,-0.223 c -1.347,-19.43 3.922,-34.8475 15.797,-46.2772 C 312,67.3711 328.77,61.5 350.434,61.2109 c 21.66,-0.3007 39.511,4.3985 53.558,14.1172 14.039,9.711 22.184,22.7735 24.426,39.2109"
         style="fill:#231f20;fill-opacity:1;fill-rule:nonzero;stroke:none"
         transform="matrix(0.13333333,0,0,-0.13333333,0,273.61333)" />
      <path
         id="path3"
         d="M 730.852,181.77 683.117,138.969 664.297,30.5 h -42.129 l 56.691,326.289 h 42.137 L 693.207,197.91 859.484,356.789 h 54.235 L 762.008,210.68 863.52,30.5 h -46.836 l -85.832,151.27"
         style="fill:#231f20;fill-opacity:1;fill-rule:nonzero;stroke:none"
         transform="matrix(0.13333333,0,0,-0.13333333,0,273.61333)" />
      <path
         id="path4"
         d="m 1104.19,151.07 h 107.35 l -27.12,152.16 z m 113.62,-35.179 H 1085.59 L 1040.99,30.5 h -45.041 l 177.271,326.289 h 36.97 L 1274.73,30.5 h -41.45 l -15.47,85.391"
         style="fill:#231f20;fill-opacity:1;fill-rule:nonzero;stroke:none"
         transform="matrix(0.13333333,0,0,-0.13333333,0,273.61333)" />
      <path
         id="path5"
         d="M 1655,321.609 H 1553.48 L 1503.06,30.5 h -41.9 l 50.42,291.109 h -101.52 l 6.28,35.18 h 244.93 l -6.27,-35.18"
         style="fill:#231f20;fill-opacity:1;fill-rule:nonzero;stroke:none"
         transform="matrix(0.13333333,0,0,-0.13333333,0,273.61333)" />
      <path
         id="path6"
         d="m 1800.82,30.5 h -41.91 l 56.7,326.289 h 41.9 L 1800.82,30.5"
         style="fill:#231f20;fill-opacity:1;fill-rule:nonzero;stroke:none"
         transform="matrix(0.13333333,0,0,-0.13333333,0,273.61333)" />
      <path
         id="path7"
         d="m 2230.94,30.5 h -40.79 L 2073.62,283.738 2029.7,30.5 h -42.36 l 56.7,326.289 h 40.78 l 116.76,-254.348 44.15,254.348 h 41.91 L 2230.94,30.5"
         style="fill:#231f20;fill-opacity:1;fill-rule:nonzero;stroke:none"
         transform="matrix(0.13333333,0,0,-0.13333333,0,273.61333)" />
      <path
         id="path8"
         d="m 2655.83,73.5313 c -10.91,-15.3907 -26.78,-27.2227 -47.62,-35.5196 -20.84,-8.2929 -44.64,-12.2812 -71.38,-11.9922 -21.36,0.4493 -40.04,5.4493 -56.02,15.0196 -15.99,9.5507 -28.54,23.2617 -37.65,41.1211 -9.11,17.8518 -14.34,38.1288 -15.69,60.8398 -1.05,17.781 1.16,41.828 6.62,72.16 5.44,30.328 14.97,56.551 28.56,78.668 13.6,22.09 30.6,38.981 50.99,50.641 20.39,11.652 43.73,17.261 70.03,16.812 30.33,-0.601 54.49,-9.601 72.5,-27.011 18,-17.411 28.27,-41.872 30.81,-73.391 h -41.68 c -1.65,20.691 -7.85,36.582 -18.6,47.672 -10.76,11.097 -25.63,16.937 -44.6,17.539 -28.09,1.051 -51.58,-9.059 -70.48,-30.301 -18.9,-21.25 -31.34,-52.309 -37.31,-93.168 l -4.26,-31.422 -0.67,-17.058 c 0,-29.481 6.05,-52.27 18.15,-68.3519 12.1,-16.0977 29.06,-24.2891 50.87,-24.5782 31.52,-0.75 56.55,7.0196 75.08,23.3008 l 13.44,73.2773 h -73.5 l 6.27,35.191 h 114.74 l -18.6,-119.4487"
         style="fill:#231f20;fill-opacity:1;fill-rule:nonzero;stroke:none"
         transform="matrix(0.13333333,0,0,-0.13333333,0,273.61333)" />
      <path
         id="path9"
         d="m 3016.1,0 h -32.72 l 60.51,386.789 h 32.72 L 3016.1,0"
         style="fill:#231f20;fill-opacity:1;fill-rule:nonzero;stroke:none"
         transform="matrix(0.13333333,0,0,-0.13333333,0,273.61333)" />
      <path
         id="path10"
         d="m 3554.98,114.539 c 3.29,23.902 -9.11,41.379 -37.2,52.441 l -38.77,14.122 -13,5.609 c -43.62,19.859 -64.01,47.801 -61.18,83.801 1.5,18.078 7.7,34.066 18.61,47.957 10.9,13.902 25.35,24.609 43.36,32.16 18,7.543 37.16,11.101 57.48,10.652 19.72,-0.453 37.31,-4.871 52.77,-13.23 15.47,-8.371 27.23,-20.051 35.3,-35.063 8.07,-15.019 11.65,-31.937 10.75,-50.769 l -42.35,0.23 c 1.49,20.09 -2.99,35.641 -13.44,46.66 -10.47,11.02 -25.4,16.68 -44.83,16.981 -20.46,0.289 -37.57,-4.488 -51.31,-14.371 -13.75,-9.879 -21.66,-23.348 -23.76,-40.41 -2.99,-22.309 10.68,-39.219 41.01,-50.75 l 33.4,-11.899 16.8,-7.172 c 42.13,-19.418 61.63,-48.258 58.49,-86.5 -1.64,-18.3669 -7.84,-34.2497 -18.6,-47.6169 C 3567.75,54 3553.15,43.6484 3534.7,36.3281 c -18.45,-7.3164 -38.29,-10.7578 -59.5,-10.3086 -20.47,0.1524 -39.18,4.5196 -56.13,13.1094 -16.96,8.5899 -29.85,20.3594 -38.66,35.3008 -8.82,14.9297 -12.7,31.8983 -11.66,50.8713 l 42.14,-0.223 c -1.35,-19.43 3.92,-34.8475 15.79,-46.2772 11.88,-11.4297 28.65,-17.3008 50.32,-17.5899 21.66,-0.3007 39.51,4.3985 53.56,14.1172 14.03,9.711 22.18,22.7735 24.42,39.2109"
         style="fill:#231f20;fill-opacity:1;fill-rule:nonzero;stroke:none"
         transform="matrix(0.13333333,0,0,-0.13333333,0,273.61333)" />
      <path
         id="path11"
         d="m 3797.13,65.6914 h 150.15 L 3941,30.5 h -192.27 l 56.69,326.289 h 42.36 L 3797.13,65.6914"
         style="fill:#231f20;fill-opacity:1;fill-rule:nonzero;stroke:none"
         transform="matrix(0.13333333,0,0,-0.13333333,0,273.61333)" />
      <path
         id="path12"
         d="m 4137.45,30.5 h -41.9 l 56.7,326.289 h 41.9 L 4137.45,30.5"
         style="fill:#231f20;fill-opacity:1;fill-rule:nonzero;stroke:none"
         transform="matrix(0.13333333,0,0,-0.13333333,0,273.61333)" />
      <path
         id="path13"
         d="m 4416.54,321.609 -44.37,-255.6988 41.46,-0.2188 c 31.67,0 58.52,9.8477 80.56,29.5781 22.03,19.7185 36.34,46.7615 42.91,81.1215 5.24,27.488 7.02,50.871 5.38,70.148 -2.24,23.152 -9.94,41.27 -23.08,54.34 -13.15,13.07 -30.77,19.91 -52.88,20.5 z M 4323.99,30.5 l 56.7,326.289 84.7,-0.219 c 26.6,0 49.49,-6.648 68.69,-19.941 19.2,-13.301 32.97,-31.641 41.34,-55.02 8.37,-23.39 10.83,-49.558 7.41,-78.55 l -2.25,-16.348 C 4574.01,139.199 4555.55,101.289 4525.23,72.9805 4494.9,44.6602 4456.8,30.5 4410.94,30.5 h -86.95"
         style="fill:#231f20;fill-opacity:1;fill-rule:nonzero;stroke:none"
         transform="matrix(0.13333333,0,0,-0.13333333,0,273.61333)" />
      <path
         id="path14"
         d="m 4766.07,30.5 h -41.91 l 56.7,326.289 h 41.91 L 4766.07,30.5"
         style="fill:#231f20;fill-opacity:1;fill-rule:nonzero;stroke:none"
         transform="matrix(0.13333333,0,0,-0.13333333,0,273.61333)" />
      <path
         id="path15"
         d="m 5196.2,30.5 h -40.79 L 5038.88,283.738 4994.95,30.5 h -42.35 l 56.7,326.289 h 40.78 l 116.76,-254.348 44.15,254.348 h 41.9 L 5196.2,30.5"
         style="fill:#231f20;fill-opacity:1;fill-rule:nonzero;stroke:none"
         transform="matrix(0.13333333,0,0,-0.13333333,0,273.61333)" />
      <path
         id="path16"
         d="m 5621.08,73.5313 c -10.91,-15.3907 -26.78,-27.2227 -47.62,-35.5196 -20.85,-8.2929 -44.64,-12.2812 -71.38,-11.9922 -21.36,0.4493 -40.04,5.4493 -56.02,15.0196 -15.99,9.5507 -28.54,23.2617 -37.65,41.1211 -9.12,17.8518 -14.34,38.1288 -15.69,60.8398 -1.05,17.781 1.16,41.828 6.61,72.16 5.46,30.328 14.98,56.551 28.57,78.668 13.6,22.09 30.59,38.981 50.99,50.641 20.39,11.652 43.73,17.261 70.03,16.812 30.32,-0.601 54.49,-9.601 72.49,-27.011 18.01,-17.411 28.27,-41.872 30.82,-73.391 h -41.69 c -1.64,20.691 -7.84,36.582 -18.59,47.672 -10.77,11.097 -25.63,16.937 -44.6,17.539 -28.09,1.051 -51.59,-9.059 -70.48,-30.301 -18.9,-21.25 -31.34,-52.309 -37.32,-93.168 l -4.25,-31.422 -0.67,-17.058 c 0,-29.481 6.05,-52.27 18.15,-68.3519 12.1,-16.0977 29.06,-24.2891 50.87,-24.5782 31.52,-0.75 56.55,7.0196 75.07,23.3008 l 13.45,73.2773 h -73.5 l 6.26,35.191 h 114.75 l -18.6,-119.4487"
         style="fill:#231f20;fill-opacity:1;fill-rule:nonzero;stroke:none"
         transform="matrix(0.13333333,0,0,-0.13333333,0,273.61333)" />
      <path
         id="path17"
         d="m 5981.36,0 h -32.72 l 60.5,386.789 h 32.73 L 5981.36,0"
         style="fill:#231f20;fill-opacity:1;fill-rule:nonzero;stroke:none"
         transform="matrix(0.13333333,0,0,-0.13333333,0,273.61333)" />
      <path
         id="path18"
         d="m 6407.96,197.68 61.86,-0.219 c 21.51,0 39.67,5.711 54.45,17.148 14.8,11.422 23.46,26.7 26,45.821 2.24,18.679 -1.5,33.32 -11.2,43.922 -9.72,10.609 -24.51,16.207 -44.38,16.808 l -65.21,0.219 z m 69.25,-35.41 h -75.29 L 6379.06,30.5 h -42.36 l 56.7,326.289 98.16,-0.219 c 34.2,-0.16 60.28,-8.832 78.21,-26.031 17.92,-17.187 25.47,-40.598 22.63,-70.219 -1.64,-20.492 -9.08,-38.519 -22.3,-54.07 -13.22,-15.559 -30.81,-27.301 -52.77,-35.23 L 6567.97,33.4102 6567.75,30.5 h -44.82 l -45.72,131.77"
         style="fill:#231f20;fill-opacity:1;fill-rule:nonzero;stroke:none"
         transform="matrix(0.13333333,0,0,-0.13333333,0,273.61333)" />
      <path
         id="path19"
         d="m 6951.59,230.852 c 0.9,29.429 -4.25,52.25 -15.45,68.457 -11.22,16.211 -27.88,24.613 -49.97,25.211 -20.03,0.589 -37.92,-4.782 -53.68,-16.129 -15.77,-11.36 -28.69,-28.352 -38.77,-50.981 -10.08,-22.64 -16.47,-51.289 -19.16,-85.949 l -0.67,-14.563 c -0.9,-29.289 4.33,-52.218 15.68,-68.7964 11.36,-16.5899 27.86,-25.1719 49.53,-25.7735 28.24,-0.75 51.66,9.4414 70.26,30.5899 18.59,21.141 30.96,50.832 37.08,89.082 2.99,18.82 4.71,35.109 5.15,48.852 z M 6837.08,26.0195 c -20.77,0.4493 -38.81,5.4493 -54.12,15.0196 -15.31,9.5507 -27.37,23.6406 -36.19,42.2422 -8.82,18.5977 -13.67,39.4807 -14.57,62.6287 -0.89,18.078 1.12,40.418 6.06,67.008 4.93,26.594 13.44,50.57 25.54,71.941 12.1,21.36 26.82,38.469 44.15,51.321 23.45,17.32 50.2,25.691 80.23,25.101 31.82,-0.601 56.92,-11.621 75.29,-33.062 18.38,-21.438 28.24,-50.457 29.59,-87.059 0.6,-15.68 -1.02,-35.64 -4.82,-59.832 -3.81,-24.207 -10.61,-46.687 -20.4,-67.457 -9.78,-20.7694 -22.22,-38.1718 -37.31,-52.2108 -26.3,-24.5 -57.44,-36.3789 -93.45,-35.6407"
         style="fill:#231f20;fill-opacity:1;fill-rule:nonzero;stroke:none"
         transform="matrix(0.13333333,0,0,-0.13333333,0,273.61333)" />
      <path
         id="path20"
         d="m 7180.21,65.6914 h 150.14 L 7324.08,30.5 H 7131.8 l 56.7,326.289 h 42.35 L 7180.21,65.6914"
         style="fill:#231f20;fill-opacity:1;fill-rule:nonzero;stroke:none"
         transform="matrix(0.13333333,0,0,-0.13333333,0,273.61333)" />
      <path
         id="path21"
         d="m 7525.74,65.6914 h 150.14 L 7669.6,30.5 h -192.27 l 56.7,326.289 h 42.35 L 7525.74,65.6914"
         style="fill:#231f20;fill-opacity:1;fill-rule:nonzero;stroke:none"
         transform="matrix(0.13333333,0,0,-0.13333333,0,273.61333)" />
      <path
         id="path22"
         d="m 7866.05,30.5 h -41.91 l 56.7,326.289 h 41.91 L 7866.05,30.5"
         style="fill:#231f20;fill-opacity:1;fill-rule:nonzero;stroke:none"
         transform="matrix(0.13333333,0,0,-0.13333333,0,273.61333)" />
      <path
         id="path23"
         d="m 8296.17,30.5 h -40.78 L 8138.86,283.738 8094.93,30.5 h -42.35 l 56.7,326.289 h 40.78 l 116.76,-254.348 44.15,254.348 h 41.9 L 8296.17,30.5"
         style="fill:#231f20;fill-opacity:1;fill-rule:nonzero;stroke:none"
         transform="matrix(0.13333333,0,0,-0.13333333,0,273.61333)" />
      <path
         id="path24"
         d="m 8721.07,73.5313 c -10.91,-15.3907 -26.78,-27.2227 -47.62,-35.5196 -20.85,-8.2929 -44.64,-12.2812 -71.38,-11.9922 -21.36,0.4493 -40.04,5.4493 -56.02,15.0196 -15.99,9.5507 -28.54,23.2617 -37.65,41.1211 -9.12,17.8518 -14.34,38.1288 -15.69,60.8398 -1.05,17.781 1.16,41.828 6.61,72.16 5.46,30.328 14.98,56.551 28.57,78.668 13.6,22.09 30.59,38.981 50.99,50.641 20.39,11.652 43.73,17.261 70.03,16.812 30.32,-0.601 54.49,-9.601 72.49,-27.011 18.01,-17.411 28.27,-41.872 30.82,-73.391 h -41.69 c -1.64,20.691 -7.84,36.582 -18.59,47.672 -10.77,11.097 -25.63,16.937 -44.6,17.539 -28.09,1.051 -51.58,-9.059 -70.48,-30.301 -18.9,-21.25 -31.34,-52.309 -37.32,-93.168 l -4.25,-31.422 -0.67,-17.058 c 0,-29.481 6.05,-52.27 18.15,-68.3519 12.1,-16.0977 29.06,-24.2891 50.87,-24.5782 31.52,-0.75 56.55,7.0196 75.07,23.3008 l 13.45,73.2773 h -73.5 l 6.26,35.191 h 114.75 l -18.6,-119.4487"
         style="fill:#231f20;fill-opacity:1;fill-rule:nonzero;stroke:none"
         transform="matrix(0.13333333,0,0,-0.13333333,0,273.61333)" />
      <path
         id="path25"
         d="m 1422.19,2043.51 -24.12,-752.82 316.98,752.82 h 249.8 l -15.51,-752.82 310.09,752.82 h 313.53 L 2025.14,837.609 H 1732.28 V 1523.25 L 1427.36,837.609 h -292.87 l -8.61,1205.901 h 296.31"
         style="fill:#efe506;fill-opacity:1;fill-rule:nonzero;stroke:none"
         transform="matrix(0.13333333,0,0,-0.13333333,0,273.61333)" />
      <path
         id="path26"
         d="m 2927,1793.71 -46.51,-215.33 h 396.22 l -172.27,-249.79 h -279.08 l -53.4,-241.18 h 482.36 L 3082.04,837.609 h -651.18 l 241.18,1080.151 -32.73,125.75 h 826.9 l -172.27,-249.8 H 2927"
         style="fill:#efe506;fill-opacity:1;fill-rule:nonzero;stroke:none"
         transform="matrix(0.13333333,0,0,-0.13333333,0,273.61333)" />
      <path
         id="path27"
         d="m 5416.71,2043.5 h -646.02 l 32.74,-125.75 -27.7,-124.05 h 489.38 c 31.01,0 41.35,-12.05 34.46,-43.06 l -55.12,-246.35 c -6.9,-32.73 -18.96,-43.07 -51.69,-43.07 H 4701.49 L 4562.25,837.602 h 284.25 l 84.41,373.828 h 292.86 c 167.1,0 256.68,74.08 294.58,241.18 l 79.25,358.33 c 32.73,148.14 -37.9,232.56 -180.89,232.56"
         style="fill:#2646a0;fill-opacity:1;fill-rule:nonzero;stroke:none"
         transform="matrix(0.13333333,0,0,-0.13333333,0,273.61333)" />
      <path
         id="path28"
         d="m 5907.8,1078.78 h 163.66 c 32.73,0 46.51,10.33 53.41,43.07 l 141.26,637.4 c 6.88,31.02 -1.73,43.07 -32.74,43.07 h -163.65 c -32.73,0 -46.51,-10.34 -53.41,-43.07 l -141.26,-637.4 c -6.89,-31.01 1.72,-43.07 32.73,-43.07 z m -163.65,732.16 c 37.9,167.1 127.48,241.17 294.58,241.17 h 344.54 c 142.99,0 213.62,-84.41 180.89,-232.56 l -167.1,-749.38 C 6359.16,903.059 6269.58,828.98 6102.47,828.98 h -344.54 c -142.99,0 -213.62,84.418 -180.89,232.57 l 167.11,749.39"
         style="fill:#2646a0;fill-opacity:1;fill-rule:nonzero;stroke:none"
         transform="matrix(0.13333333,0,0,-0.13333333,0,273.61333)" />
      <path
         id="path29"
         d="m 7132.3,1461.22 c 32.74,0 44.8,10.34 51.69,43.07 l 55.13,246.35 c 6.88,31.01 -3.45,43.06 -34.46,43.06 h -206.72 l -72.36,-332.48 z m 404.85,349.72 -79.25,-358.33 c -27.56,-120.59 -80.97,-192.94 -172.27,-223.96 l 68.91,-391.048 h -310.09 l -49.96,373.828 H 6870.46 L 6786.04,837.602 H 6501.8 l 241.18,1080.148 -32.74,125.75 h 646.02 c 142.99,0 213.62,-84.42 180.89,-232.56"
         style="fill:#2646a0;fill-opacity:1;fill-rule:nonzero;stroke:none"
         transform="matrix(0.13333333,0,0,-0.13333333,0,273.61333)" />
      <path
         id="path30"
         d="m 3796.56,828.988 h 344.54 c 167.11,0 256.69,74.071 294.59,241.182 l 72.6,327.31 c 32.73,148.15 -37.9,232.56 -180.89,232.56 h -344.54 c -167.1,0 -256.68,-74.08 -294.58,-241.17 l -2.29,-10.33 h 491.29 c 31.01,0 39.62,-12.06 32.74,-43.08 l -46.52,-211.89 c -6.89,-32.74 -20.67,-43.07 -53.4,-43.07 h -490.23 l -4.2,-18.95 c -32.72,-148.152 37.9,-232.562 180.89,-232.562"
         style="fill:#2646a0;fill-opacity:1;fill-rule:nonzero;stroke:none"
         transform="matrix(0.13333333,0,0,-0.13333333,0,273.61333)" />
      <path
         id="path31"
         d="m 4668.19,2043.52 h -594.04 c -167.09,0 -256.67,-74.07 -294.58,-241.17 l -1.9,-8.6 718.24,-0.03 172.28,249.8"
         style="fill:#2646a0;fill-opacity:1;fill-rule:nonzero;stroke:none"
         transform="matrix(0.13333333,0,0,-0.13333333,0,273.61333)" />
      <path
         id="path32"
         d="M 719.625,1630.03 H 375.086 c -167.102,0 -256.684,-74.08 -294.5821,-241.17 l -2.293,-10.34 H 569.512 c 31.004,0 39.617,-12.06 32.734,-43.07 l -46.516,-211.9 c -6.894,-32.73 -20.671,-43.06 -53.406,-43.06 H 12.1016 L 7.89844,1061.54 C -24.8242,913.391 45.8008,828.969 188.789,828.969 h 344.539 c 167.11,0 256.692,74.082 294.59,241.191 l 72.598,327.31 c 32.73,148.14 -37.903,232.56 -180.891,232.56"
         style="fill:#efe506;fill-opacity:1;fill-rule:nonzero;stroke:none"
         transform="matrix(0.13333333,0,0,-0.13333333,0,273.61333)" />
      <path
         id="path33"
         d="m 171.801,1802.34 -1.906,-8.6 718.242,-0.03 172.273,249.8 H 466.383 c -167.102,0 -256.68,-74.07 -294.582,-241.17"
         style="fill:#efe506;fill-opacity:1;fill-rule:nonzero;stroke:none"
         transform="matrix(0.13333333,0,0,-0.13333333,0,273.61333)" />
      <path
         id="path34"
         d="m 8949.83,1630.03 h -344.54 c -167.1,0 -256.68,-74.07 -294.58,-241.17 l -2.3,-10.33 h 491.3 c 31.01,0 39.62,-12.06 32.74,-43.08 l -46.52,-211.89 c -6.89,-32.74 -20.67,-43.07 -53.41,-43.07 H 8242.3 l -4.2,-18.94 C 8205.38,913.391 8276,828.98 8418.99,828.98 h 344.54 c 167.11,0 256.69,74.071 294.59,241.18 l 72.6,327.31 c 32.73,148.15 -37.91,232.56 -180.89,232.56"
         style="fill:#2646a0;fill-opacity:1;fill-rule:nonzero;stroke:none"
         transform="matrix(0.13333333,0,0,-0.13333333,0,273.61333)" />
      <path
         id="path35"
         d="m 7670,837.602 h 284.25 L 8129.86,1630 7845.6,1629.96 7670,837.602"
         style="fill:#2646a0;fill-opacity:1;fill-rule:nonzero;stroke:none"
         transform="matrix(0.13333333,0,0,-0.13333333,0,273.61333)" />
      <path
         id="path36"
         d="m 9290.61,2043.51 -1618.89,-0.01 -56.85,-249.8 1503.47,0.02 172.27,249.79"
         style="fill:#2646a0;fill-opacity:1;fill-rule:nonzero;stroke:none"
         transform="matrix(0.13333333,0,0,-0.13333333,0,273.61333)" />
    </g>
  </g>
</svg>
